<svg width="27" height="31" viewBox="0 0 27 31" fill="none" xmlns="http://www.w3.org/2000/svg">
<g clip-path="url(#clip0)">
<path d="M20.6919 20.7075V3.9425C20.6919 1.7675 18.9514 0 16.8151 0H3.87681C1.73805 0 0 1.7675 0 3.9425V20.71C0 22.8825 1.73805 24.65 3.87681 24.65H16.8151C18.9514 24.65 20.6919 22.8825 20.6919 20.7075ZM2.18301 20.7075V3.9425C2.18301 2.9925 2.94264 2.2225 3.87435 2.2225H16.8151C17.7492 2.2225 18.5064 2.995 18.5064 3.9425V20.71C18.5064 21.66 17.7468 22.43 16.8151 22.43H3.87681C2.94264 22.43 2.18301 21.6575 2.18301 20.7075Z" fill="#676397"/>
<path d="M14.7402 16.71H5.95166C5.64928 16.71 5.37641 16.835 5.17974 17.035C4.98307 17.235 4.86015 17.5125 4.86015 17.82C4.86015 18.4325 5.34936 18.93 5.95166 18.93H14.7402C15.0426 18.93 15.3155 18.805 15.5122 18.605C15.7088 18.405 15.8317 18.1275 15.8317 17.82C15.8317 17.2075 15.3425 16.71 14.7402 16.71Z" fill="#676397"/>
<path d="M14.7402 11.215H5.95166C5.64928 11.215 5.37641 11.34 5.17974 11.54C4.98307 11.74 4.86015 12.0175 4.86015 12.325C4.86015 12.9375 5.34936 13.435 5.95166 13.435H14.7402C15.0426 13.435 15.3155 13.31 15.5122 13.11C15.7088 12.91 15.8317 12.6325 15.8317 12.325C15.8317 11.7125 15.3425 11.215 14.7402 11.215Z" fill="#676397"/>
<path d="M14.7402 5.7175H5.95166C5.64928 5.7175 5.37641 5.8425 5.17974 6.0425C4.98307 6.2425 4.86015 6.52 4.86015 6.8275C4.86015 7.44 5.34936 7.9375 5.95166 7.9375H14.7402C15.0426 7.9375 15.3155 7.8125 15.5122 7.6125C15.7088 7.4125 15.8317 7.135 15.8317 6.8275C15.8317 6.215 15.3425 5.7175 14.7402 5.7175Z" fill="#676397"/>
<path d="M23.1256 6.35H21.9579V8.57H23.1256C24.0574 8.57 24.817 9.3425 24.817 10.2925V27.06C24.817 28.0075 24.0574 28.78 23.1256 28.78H10.1849C9.25074 28.78 8.49112 28.0075 8.49112 27.06V25.9375H6.30811V27.06C6.30811 29.2325 8.04616 31.0025 10.1849 31.0025H23.1232C25.2595 31.0025 27 29.235 27 27.06V10.2925C27 8.1175 25.2619 6.35 23.1256 6.35Z" fill="#676397"/>
</g>
<defs>
<clipPath id="clip0">
<rect width="27" height="31" fill="white"/>
</clipPath>
</defs>
</svg>
