<svg width="14" height="14" viewBox="0 0 14 14" fill="none" xmlns="http://www.w3.org/2000/svg">
<path d="M12.1352 13.1225C11.8752 13.1225 11.6252 13.0225 11.4251 12.8325L0.292567 1.7025C-0.0975224 1.3125 -0.0975224 0.6825 0.292567 0.2925C0.682657 -0.0975 1.31277 -0.0975 1.70286 0.2925L12.8354 11.4225C13.2255 11.8125 13.2255 12.4425 12.8354 12.8325C12.6454 13.0325 12.3953 13.1225 12.1352 13.1225Z" fill="white"/>
<path d="M1.00275 13.1225C0.742692 13.1225 0.492613 13.0225 0.292567 12.8325C-0.0975224 12.4425 -0.0975224 11.8125 0.292567 11.4225L11.4251 0.2925C11.8152 -0.0975 12.4453 -0.0975 12.8354 0.2925C13.2255 0.6825 13.2255 1.3125 12.8354 1.7025L1.70286 12.8325C1.51282 13.0325 1.25281 13.1225 1.00275 13.1225Z" fill="white"/>
</svg>
