<svg width="50" height="50" viewBox="0 0 50 50" fill="none" xmlns="http://www.w3.org/2000/svg">
<g clip-path="url(#clip0)">
<path d="M46.5531 12.8163C44.3278 8.90813 41.3075 5.81394 37.4939 3.53223C33.6789 1.25053 29.5164 0.10968 25 0.10968C20.4836 0.10968 16.319 1.25053 12.5039 3.53223C8.69103 5.81394 5.67225 8.90813 3.44616 12.8163C1.22007 16.7266 0.107027 20.9953 0.107027 25.6238C0.107027 31.1832 1.69026 36.1825 4.85459 40.6223C8.02107 45.0621 12.1101 48.1366 17.1231 49.8406C17.706 49.9524 18.1391 49.8749 18.4188 49.6095C18.7006 49.3425 18.8404 49.0098 18.8404 48.6119C18.8404 48.5461 18.8347 47.9486 18.8247 46.818C18.8126 45.6896 18.8069 44.7038 18.8069 43.8621L18.0627 43.9952C17.5868 44.0851 16.9868 44.1224 16.264 44.1107C15.5398 44.1005 14.7878 44.0229 14.0108 43.8774C13.2324 43.7341 12.5089 43.4035 11.839 42.8821C11.1683 42.3621 10.6945 41.6813 10.4134 40.8395L10.0888 40.0753C9.87329 39.5656 9.53367 39.0025 9.06918 38.3809C8.65108 37.8251 8.22941 37.4279 7.80416 37.1925C7.69001 37.1296 7.57942 37.0608 7.47382 36.984L7.43172 36.9533C7.28046 36.8414 7.14062 36.7083 7.01076 36.5533C6.88019 36.3997 6.78316 36.2447 6.71966 36.0896C6.65544 35.9339 6.70753 35.8066 6.88091 35.7072C6.98008 35.6487 7.12492 35.6084 7.31542 35.5843C7.57585 35.5514 7.84055 35.5609 8.10026 35.6004L8.46985 35.6567C8.90151 35.7445 9.43734 36.0107 10.0745 36.4531C10.7116 36.897 11.2361 37.4726 11.6456 38.1812C12.1429 39.0888 12.7408 39.7799 13.4443 40.2574C14.1478 40.7335 14.8549 40.9704 15.5677 40.9704C16.2804 40.9704 16.8962 40.9141 17.4149 40.8052C17.9336 40.6933 18.4188 40.5287 18.8733 40.3071C19.068 38.8218 19.5975 37.681 20.4608 36.8846C19.2293 36.7507 18.122 36.5526 17.1388 36.2849C16.1556 36.0202 15.1396 35.588 14.0929 34.989C13.044 34.3923 12.1736 33.6492 11.4822 32.7651C10.7923 31.8795 10.2236 30.7145 9.78267 29.2767C9.3396 27.8353 9.11841 26.1745 9.11841 24.2935C9.11841 21.6133 9.97104 19.3323 11.6791 17.4484C10.8786 15.4337 10.9542 13.1761 11.9067 10.6728C12.5318 10.4717 13.4621 10.6231 14.6936 11.1211C15.9251 11.6191 16.8263 12.0469 17.3992 12.3994C17.9728 12.7534 18.4309 13.0547 18.7769 13.2975C20.7876 12.7219 22.8624 12.4338 25.0007 12.4338C27.139 12.4338 29.2139 12.7219 31.2238 13.2975L32.4553 12.4989C33.2965 11.9672 34.2904 11.4816 35.4369 11.0377C36.5814 10.596 37.4568 10.4746 38.0633 10.6735C39.0344 13.1768 39.1221 15.4344 38.3216 17.4506C40.029 19.3323 40.8816 21.614 40.8816 24.2935C40.8816 26.1745 40.6604 27.8419 40.2173 29.2928C39.775 30.7437 39.2035 31.9072 38.5 32.7804C37.7972 33.6566 36.9224 34.3915 35.8736 34.9905C34.8262 35.588 33.8102 36.0202 32.8277 36.2849C31.8445 36.5518 30.7379 36.7507 29.5057 36.8846C30.6287 37.8821 31.1902 39.453 31.1902 41.6016V48.6119C31.1902 49.0098 31.3258 49.3425 31.5962 49.6073C31.8659 49.872 32.2919 49.9517 32.8762 49.8398C37.8899 48.1337 41.9789 45.0614 45.1433 40.6194C48.3097 36.1796 49.893 31.1803 49.893 25.6216C49.8908 20.9953 48.7778 16.7266 46.5531 12.8163Z" fill="#443D63"/>
<path d="M17.599 50C17.4463 50 17.2815 49.9832 17.1038 49.9488L17.0895 49.9452C12.0794 48.2419 7.93402 45.1273 4.76826 40.6874C1.60393 36.2476 0 31.1796 0 25.6238C0 20.9968 1.12803 16.6689 3.35341 12.7607C5.57878 8.85476 8.63895 5.71815 12.4504 3.43718C16.264 1.15621 20.4865 0 25.0007 0C29.5135 0 33.7353 1.15621 37.5489 3.43718C41.3611 5.71888 44.4219 8.85549 46.6459 12.7614C48.8691 16.6696 49.9979 20.9968 49.9993 25.6231C49.9993 31.1796 48.3946 36.2476 45.2289 40.686C42.0674 45.1236 37.9227 48.2397 32.909 49.9459L32.8948 49.9495C32.2797 50.0673 31.8181 49.9788 31.5213 49.6877C31.2302 49.4025 31.0825 49.0412 31.0825 48.6127V41.6023C31.0825 39.4983 30.5281 37.9392 29.4351 36.9687L29.2488 36.8034L29.4936 36.7771C30.7201 36.644 31.8324 36.4436 32.7992 36.1811C33.7674 35.9207 34.7834 35.4885 35.8201 34.8969C36.8525 34.3074 37.7258 33.5725 38.4158 32.7132C39.105 31.8568 39.6758 30.6955 40.1132 29.2621C40.5505 27.8287 40.7724 26.1577 40.7724 24.295C40.7724 21.655 39.9205 19.3784 38.241 17.5267L38.1946 17.4755L38.2203 17.4104C38.9994 15.4461 38.9188 13.2097 37.9805 10.7642C37.4012 10.5953 36.5578 10.7225 35.4726 11.1416C34.331 11.584 33.3343 12.0725 32.5095 12.594L31.2388 13.4182L31.1931 13.405C29.1996 12.8346 27.1155 12.545 24.9986 12.545C22.8816 12.545 20.7968 12.8346 18.8033 13.405L18.7555 13.4189L18.7141 13.3896C18.351 13.1344 17.8894 12.8331 17.3421 12.4952C16.7663 12.1413 15.8609 11.7135 14.6522 11.225C13.4786 10.7511 12.5817 10.5968 11.9852 10.765C11.0662 13.209 10.9956 15.4439 11.7762 17.409L11.8019 17.474L11.7555 17.5252C10.0752 19.3784 9.22329 21.6564 9.22329 24.2957C9.22329 26.1569 9.44519 27.8229 9.88256 29.246C10.3171 30.6626 10.8829 31.8239 11.5635 32.6993C12.2449 33.5703 13.1125 34.3096 14.1428 34.8954C15.1774 35.4878 16.1934 35.92 17.1637 36.1811C18.1312 36.4436 19.2428 36.6447 20.4693 36.7778L20.7084 36.8034L20.53 36.968C19.6895 37.7439 19.1672 38.873 18.9774 40.324L18.9696 40.3832L18.9175 40.4088C18.4601 40.6319 17.9614 40.8023 17.4349 40.9149C16.9062 41.026 16.2776 41.0823 15.5655 41.0823C14.8342 41.0823 14.1 40.8366 13.3829 40.351C12.6695 39.8669 12.053 39.1553 11.55 38.2368C11.1526 37.5494 10.6346 36.9797 10.0117 36.546C9.38811 36.1131 8.86155 35.8505 8.4463 35.7664L8.08171 35.7108C7.81843 35.6706 7.56443 35.6655 7.32612 35.6955C7.14918 35.7174 7.01647 35.754 6.93156 35.8044C6.7696 35.8973 6.78672 35.9792 6.81598 36.0487C6.87591 36.1942 6.96795 36.3405 7.08924 36.4831C7.21624 36.6345 7.34753 36.7595 7.49237 36.8663L7.53375 36.8963C7.63007 36.9665 7.73495 37.0323 7.85339 37.0981C8.28862 37.3395 8.72528 37.749 9.15195 38.3165C9.62856 38.9535 9.96604 39.5151 10.1851 40.0344L10.5126 40.8066C10.7858 41.625 11.2532 42.2949 11.9017 42.7973C12.5539 43.3048 13.2688 43.6324 14.0279 43.7721C14.7942 43.9155 15.5462 43.993 16.2633 44.0032C16.9797 44.0149 17.5783 43.9762 18.0413 43.8891L18.9118 43.7334V43.8635C18.9118 44.6994 18.9175 45.6933 18.9296 46.8188C18.9346 47.4119 18.9382 47.858 18.941 48.1578C18.9439 48.4306 18.9446 48.5827 18.9446 48.6142C18.9446 49.0434 18.7912 49.4062 18.4887 49.6921C18.2739 49.8962 17.975 50 17.599 50ZM17.1502 49.7345C17.6924 49.8369 18.0948 49.7682 18.346 49.5298C18.6064 49.2833 18.7334 48.9835 18.7334 48.6127C18.7334 48.5812 18.732 48.4299 18.7298 48.1586C18.727 47.8587 18.7234 47.4126 18.7184 46.8195C18.707 45.7518 18.7013 44.8018 18.7006 43.993L18.082 44.1034C17.6061 44.1934 16.9939 44.2321 16.2633 44.2204C15.5341 44.2102 14.77 44.1312 13.9923 43.9857C13.2003 43.8401 12.454 43.4979 11.7754 42.9699C11.0941 42.4411 10.6025 41.7383 10.3149 40.8798L9.99172 40.1192C9.78267 39.6241 9.44376 39.0617 8.98499 38.4482C8.57687 37.9055 8.16305 37.5157 7.75422 37.2897C7.62793 37.2195 7.51662 37.1493 7.41245 37.074L7.37036 37.0433C7.21339 36.927 7.0657 36.7866 6.93013 36.625C6.79457 36.4656 6.6904 36.2995 6.62119 36.1328C6.57125 36.0114 6.53129 35.7825 6.82882 35.6121C6.93941 35.547 7.09424 35.5024 7.30258 35.4761C7.56015 35.4439 7.83341 35.449 8.11596 35.4929L8.48555 35.5492C8.93433 35.6399 9.48729 35.9141 10.1344 36.3632C10.7837 36.8159 11.3231 37.409 11.7376 38.1256C12.2249 39.0157 12.8186 39.7016 13.5035 40.1667C14.1842 40.6275 14.8791 40.8615 15.5677 40.8615C16.2654 40.8615 16.8798 40.8066 17.3935 40.6984C17.8829 40.5931 18.3474 40.4366 18.7755 40.234C18.9653 38.857 19.4505 37.76 20.2203 36.9687C19.073 36.8349 18.0285 36.6411 17.1116 36.3924C16.1242 36.127 15.091 35.6874 14.0408 35.0863C12.987 34.4866 12.0979 33.729 11.3987 32.8353C10.7009 31.9387 10.123 30.7533 9.68064 29.3111C9.23685 27.866 9.01139 26.1789 9.01139 24.295C9.01139 21.6228 9.86686 19.3126 11.5543 17.4265C10.7737 15.4103 10.8586 13.1256 11.8061 10.6348L11.8247 10.5858L11.8739 10.5697C12.5275 10.3598 13.4621 10.5075 14.7322 11.0202C15.9515 11.5131 16.8676 11.946 17.4534 12.3066C17.9842 12.6342 18.4352 12.9282 18.7948 13.179C20.7925 12.6123 22.8795 12.3249 24.9993 12.3249C27.1191 12.3249 29.2067 12.6123 31.2059 13.1798L32.3975 12.4068C33.2344 11.8773 34.244 11.3829 35.3984 10.9354C36.5607 10.4863 37.4675 10.3635 38.0947 10.569L38.1425 10.5851L38.161 10.6333C39.1278 13.1264 39.2234 15.4117 38.445 17.428C40.1324 19.3118 40.9872 21.6221 40.9872 24.295C40.9872 26.1796 40.7617 27.8726 40.3179 29.3272C39.8727 30.7876 39.2884 31.9738 38.5813 32.8521C37.8742 33.7326 36.9809 34.4852 35.925 35.0885C34.8726 35.6889 33.8394 36.1277 32.8541 36.3932C31.9387 36.6418 30.8963 36.8356 29.7511 36.9694C30.7764 37.9903 31.2966 39.548 31.2966 41.6038V48.6142C31.2966 48.9798 31.4221 49.2877 31.669 49.5305C31.9116 49.7689 32.3083 49.8377 32.8484 49.736C37.815 48.0437 41.9226 44.9554 45.0555 40.5573C48.1934 36.1577 49.7845 31.1335 49.7845 25.6238C49.7824 21.037 48.6636 16.7471 46.4597 12.8726C44.2543 9.00029 41.2191 5.89001 37.439 3.62805C33.6596 1.3661 29.4743 0.219394 25 0.219394C20.5243 0.219394 16.3382 1.3661 12.5581 3.62732C8.7795 5.88855 5.74431 8.99883 3.53891 12.8719C1.3328 16.7464 0.214047 21.0363 0.214047 25.6238C0.214047 31.1321 1.80442 36.1562 4.94092 40.5573C8.07886 44.9576 12.1864 48.0452 17.1502 49.7345Z" fill="#443D63"/>
</g>
<defs>
<clipPath id="clip0">
<rect width="50" height="50" fill="white"/>
</clipPath>
</defs>
</svg>
