<svg width="32" height="28" viewBox="0 0 32 28" fill="none" xmlns="http://www.w3.org/2000/svg">
<path d="M17.7675 0C9.97726 0 3.6389 6.18528 3.54235 13.8246L2.07566 12.3852C1.60037 11.9175 0.831748 11.9175 0.356463 12.3852C-0.118821 12.8528 -0.118821 13.6091 0.356463 14.0767L3.88768 17.5511C4.12532 17.785 4.43722 17.9019 4.74913 17.9019C5.06104 17.9019 5.36923 17.785 5.60687 17.5511L9.13808 14.0767C9.61337 13.6091 9.61337 12.8528 9.13808 12.3852C8.6628 11.9175 7.89418 11.9175 7.41889 12.3852L5.97447 13.8064C6.08215 7.49321 11.3251 2.38935 17.7675 2.38935C24.2729 2.38935 29.5679 7.59917 29.5679 14C29.5679 20.4045 24.2729 25.6106 17.7675 25.6106C17.0954 25.6106 16.5533 26.1477 16.5533 26.8053C16.5533 27.4666 17.0991 28 17.7675 28C25.6134 28 32 21.7197 32 13.9963C31.9963 6.28027 25.6134 0 17.7675 0Z" fill="white"/>
<path d="M13.9541 24.8946C13.2708 24.6644 12.5245 25.0188 12.2906 25.6947C12.0566 26.3669 12.4168 27.1013 13.1 27.3314C13.7832 27.5616 14.5296 27.2072 14.7635 26.535C15.0012 25.8591 14.6373 25.1247 13.9541 24.8946Z" fill="white"/>
<path d="M10.3968 22.9546C9.83616 22.5052 9.01184 22.5929 8.55512 23.1446C8.0984 23.6962 8.18751 24.5073 8.7482 24.9567C9.30889 25.4061 10.1332 25.3184 10.5899 24.7667C11.0466 24.215 10.9612 23.404 10.3968 22.9546Z" fill="white"/>
<path d="M5.93363 19.4948C5.31353 19.8601 5.11302 20.6529 5.48434 21.263C5.85565 21.8732 6.66141 22.0705 7.2815 21.7051C7.9016 21.3398 8.10211 20.547 7.7308 19.9368C7.35948 19.3267 6.55373 19.1294 5.93363 19.4948Z" fill="white"/>
<path d="M17.7712 5.15866C17.0991 5.15866 16.557 5.69572 16.557 6.35334V14C16.557 14.4457 16.8057 14.8512 17.2068 15.0595L21.243 17.1529C21.4249 17.2479 21.618 17.2917 21.8074 17.2917C22.2455 17.2917 22.6651 17.0616 22.8842 16.6524C23.1961 16.0678 22.9696 15.3445 22.3755 15.0339L18.9854 13.2766V6.35334C18.9854 5.69206 18.4432 5.15866 17.7712 5.15866Z" fill="white"/>
</svg>
