<svg width="27" height="26" viewBox="0 0 27 26" fill="none" xmlns="http://www.w3.org/2000/svg">
<path d="M14.6253 0H13.5003C13.191 0 12.9378 0.243836 12.9378 0.541644V5.41671C12.9378 5.71452 13.4721 5.95836 13.7817 5.95836H14.6255C14.9348 5.95836 15.188 5.71452 15.188 5.41671V0.541644C15.1877 0.243836 14.9348 0 14.6253 0Z" fill="#676397"/>
<path d="M26.0085 4.47562L22.3594 0.96137C21.7266 0.352055 20.8617 0 19.9618 0H17.993C17.3742 0 16.868 0.494247 16.868 1.09699V6.5137C16.868 7.10959 16.3619 7.59699 15.7431 7.59699H6.75C6.13119 7.59699 5.62505 7.10959 5.62505 6.5137V1.09699C5.62505 0.501096 5.11862 0 4.5001 0H2.24991C1.01257 0 0 0.975069 0 2.16658V23.8331C0 25.0249 1.01257 26 2.24991 26H24.7498C25.9874 26 26.9997 25.0249 26.9997 23.8334V6.77096C27 5.91096 26.6415 5.08493 26.0085 4.47562ZM18.1407 22.7567C18.1407 23.3526 17.5782 23.84 16.8891 23.84H5.61082C4.92174 23.84 4.35926 23.3526 4.35926 22.7567V16.2567C4.35926 15.6608 4.92174 15.1734 5.61082 15.1734H16.8891C17.5782 15.1734 18.1407 15.6608 18.1407 16.2567V22.7567Z" fill="#676397"/>
</svg>
