<svg width="31" height="19" viewBox="0 0 31 19" fill="none" xmlns="http://www.w3.org/2000/svg">
<g clip-path="url(#clip0)">
<path d="M0 18.4211C0 18.7407 0.257841 19.001 0.576698 19.001H5.58886C9.3 19.001 12.649 16.7885 14.1222 13.3629L16.1741 8.59165C17.2084 6.18622 19.5605 4.63175 22.1675 4.63175H25.4043V1.84933H22.1675C18.4563 1.84933 15.1073 4.06181 13.6341 7.48739L11.5822 12.2587C10.5479 14.6641 8.19581 16.2186 5.58886 16.2186H0.576698C0.258825 16.2186 0 16.4778 0 16.7984V18.4211Z" fill="white"/>
<path d="M27.2131 6.20997L30.8357 3.47703C31.0551 3.31179 31.0551 2.9813 30.8357 2.81606L27.2131 0.084102C26.9424 -0.12072 26.5557 0.0742072 26.5557 0.414588V5.88048C26.5557 6.22086 26.9424 6.4148 27.2131 6.20997Z" fill="white"/>
<path d="M0.576698 2.78143H5.58886C8.19581 2.78143 10.5479 4.3359 11.5822 6.74133L12.1658 8.09791L12.6185 7.04609C12.9383 6.302 13.3379 5.60837 13.8043 4.97412C12.2032 1.92949 9.05397 0 5.58787 0H0.576698C0.257841 0 0 0.259244 0 0.579835V2.20258C0 2.52219 0.257841 2.78143 0.576698 2.78143Z" fill="white"/>
<path d="M22.1665 17.1516H25.4032V14.3702H22.1665C19.7317 14.3702 17.5194 13.0146 16.3955 10.8764L15.1368 13.8033C15.126 13.829 15.1142 13.8547 15.1024 13.8814C16.8384 15.9237 19.402 17.1516 22.1665 17.1516Z" fill="white"/>
<path d="M26.5557 18.5864C26.5557 18.9268 26.9424 19.1217 27.2131 18.9169L30.8357 16.1839C31.0551 16.0187 31.0551 15.6882 30.8357 15.523L27.2131 12.79C26.9424 12.5852 26.5557 12.7801 26.5557 13.1205V18.5864Z" fill="white"/>
</g>
<defs>
<clipPath id="clip0">
<rect width="31" height="19" fill="white"/>
</clipPath>
</defs>
</svg>
